<svg width="164" height="171" viewBox="0 0 164 171" fill="none" xmlns="http://www.w3.org/2000/svg">
<rect x="53.92" y="1.08008" width="87.36" height="119.04" rx="0.48" fill="#FF931E" stroke="#07131A" stroke-width="1.25"/>
<rect x="100.48" y="81.72" width="62.88" height="61.44" rx="0.48" fill="#3FA9F5" stroke="#07131A" stroke-width="1.25"/>
<rect x="7.35999" y="62.04" width="99.84" height="96" rx="0.48" fill="#FDD131" stroke="#07131A" stroke-width="1.25"/>
<path d="M129.441 31.3611C127.362 31.4571 126.622 32.7508 126.69 34.1646C126.757 35.5784 127.922 36.4692 129.681 36.388C131.44 36.3068 132.165 34.699 132.12 33.7564C132.075 32.8139 131.041 31.2873 129.441 31.3611Z" fill="white"/>
<path d="M133.535 37.0211C132.575 37.0654 131.828 38.202 131.865 38.9874C131.903 39.7729 132.595 40.843 133.714 40.7913C134.834 40.7396 135.596 39.9172 135.544 38.8176C135.491 37.718 134.494 36.9768 133.535 37.0211Z" fill="white"/>
<path fill-rule="evenodd" clip-rule="evenodd" d="M130.935 49.0294C124.804 45.2111 121.11 38.0461 125.234 27.5862C126.178 27.3706 127.134 27.2052 128.096 27.0919C130.662 26.7896 133.27 26.8583 135.802 27.3357C137.648 27.6837 139.453 28.249 141.173 29.046C142.11 39.327 138.216 46.1275 130.935 49.0294ZM129.441 31.3611C127.362 31.4571 126.622 32.7508 126.69 34.1646C126.757 35.5784 127.922 36.4692 129.681 36.388C131.44 36.3068 132.165 34.699 132.12 33.7564C132.075 32.8139 131.041 31.2873 129.441 31.3611ZM133.535 37.0211C132.575 37.0654 131.828 38.202 131.865 38.9874C131.903 39.7729 132.595 40.843 133.714 40.7913C134.834 40.7396 135.596 39.9172 135.544 38.8176C135.491 37.718 134.494 36.9768 133.535 37.0211Z" fill="#07131A"/>
<path d="M138.091 51.8174C131.7 53.2071 124.801 52.9547 119.597 50.5673C123.941 50.8189 127.76 50.2947 130.935 49.0294C133.096 50.3754 135.56 51.3055 138.091 51.8174Z" fill="white"/>
<path d="M119.597 50.5673C114.942 48.4314 110.889 45.1153 108.238 40.9308C111.18 34.042 117.838 29.2752 125.234 27.5862C121.11 38.0461 124.804 45.2111 130.935 49.0294C127.76 50.2947 123.941 50.8189 119.597 50.5673Z" fill="#07131A"/>
<path d="M141.173 29.046C141.505 29.1998 141.833 29.3621 142.158 29.5331C144.511 30.7718 147.753 32.4185 149.613 34.6122C151.172 36.4508 153.688 38.7418 154.741 41.3027C152.076 46.4713 145.418 50.224 138.091 51.8174C135.56 51.3055 133.096 50.3754 130.935 49.0294C138.216 46.1275 142.11 39.327 141.173 29.046Z" fill="white"/>
<path fill-rule="evenodd" clip-rule="evenodd" d="M155.942 39.3928L161.378 35.913C161.824 35.6273 162.418 35.7577 162.704 36.2043C162.991 36.6509 162.861 37.2445 162.415 37.5302L156.659 41.2153C156.675 41.5476 156.604 41.8821 156.448 42.1843C153.401 48.0951 146.066 52.0484 138.501 53.6935C131.843 55.1414 124.492 54.9242 118.799 52.312C113.853 50.0432 109.493 46.4972 106.616 41.9565C106.277 41.4221 106.223 40.7556 106.472 40.1745C109.701 32.6148 116.932 27.5121 124.804 25.7145C125.546 25.5451 126.295 25.4045 127.049 25.2937L126.726 18.5084C126.701 17.9788 127.11 17.5296 127.639 17.5052C128.169 17.4807 128.619 17.8902 128.644 18.4198L128.961 25.0777C130.974 24.9186 133.008 24.9732 135.014 25.2601L135.562 18.7612C135.607 18.233 136.072 17.8416 136.6 17.887C137.128 17.9324 137.52 18.3974 137.476 18.9256L136.912 25.6036C138.644 25.9844 140.344 26.5471 141.978 27.3044C142.003 27.3161 142.029 27.3277 142.054 27.3394L145.171 20.0706C145.379 19.5836 145.944 19.3586 146.431 19.5682C146.919 19.7777 147.144 20.3423 146.936 20.8293L143.77 28.2119C145.699 29.2254 148.304 30.6346 150.226 32.4726L155.587 26.4239C155.939 26.0274 156.546 25.9914 156.943 26.3433C157.34 26.6953 157.377 27.302 157.025 27.6985L151.534 33.8941C151.768 34.1556 152.022 34.4322 152.296 34.7302L152.337 34.7756C152.807 35.2869 153.324 35.8509 153.829 36.4437C154.566 37.3102 155.333 38.3015 155.942 39.3928ZM150.248 35.3335C150.448 35.5547 150.656 35.7814 150.869 36.0134C152.081 37.332 153.448 38.8204 154.323 40.4296C154.479 40.7169 154.62 41.008 154.741 41.3027C154.595 41.5853 154.438 41.8638 154.269 42.1378C151.478 46.6612 145.583 49.9979 139.026 51.6014C138.716 51.6773 138.404 51.7494 138.091 51.8175C137.338 51.9812 136.578 52.1221 135.814 52.2395C131.174 52.9526 126.407 52.7939 122.321 51.5826C121.373 51.3015 120.462 50.9639 119.597 50.5673C119.306 50.4336 119.017 50.2954 118.73 50.1525C114.44 48.013 110.723 44.8535 108.238 40.9308C111.029 34.397 117.161 29.7721 124.097 27.8717C124.474 27.7685 124.853 27.6733 125.234 27.5862C125.546 27.515 125.859 27.4493 126.173 27.389C126.496 27.3272 126.82 27.2712 127.145 27.2212C127.461 27.1725 127.778 27.1293 128.096 27.0919C128.414 27.0544 128.733 27.0226 129.053 26.9966C130.987 26.8391 132.937 26.8936 134.852 27.1762C135.169 27.223 135.486 27.2762 135.802 27.3357C136.116 27.395 136.43 27.4606 136.742 27.5326C137.951 27.8116 139.139 28.1864 140.293 28.6612C140.588 28.7829 140.882 28.9112 141.173 29.0461C141.214 29.0652 141.256 29.0845 141.297 29.1039C141.586 29.2404 141.874 29.3834 142.158 29.5331C142.164 29.5366 142.171 29.54 142.177 29.5434C142.276 29.595 142.375 29.6473 142.476 29.7004C142.65 29.7916 142.827 29.8849 143.008 29.9804C144.966 31.0141 147.299 32.302 148.953 33.9087C149.188 34.1368 149.409 34.3712 149.613 34.6122C149.811 34.8455 150.024 35.0861 150.248 35.3335Z" fill="#07131A"/>
<path d="M150.88 73.0801L163.36 73.0801" stroke="#07131A" stroke-width="1.25" stroke-linecap="round" stroke-linejoin="round"/>
<path d="M76.0238 31.5602C60.0405 31.5698 7.0134 32.1105 1.0863 40.5869C0.951872 40.7791 1.01551 41.0265 1.20454 41.1654C5.47174 44.3011 10.7866 44.75 15.28 48.1201C19.8565 51.5524 54.561 51.9547 76.0386 50.5493C76.2907 50.5328 76.4799 50.3238 76.4799 50.0712V32.0401C76.4799 31.775 76.2889 31.56 76.0238 31.5602Z" fill="#07131A" stroke="black" stroke-width="1.25"/>
<path fill-rule="evenodd" clip-rule="evenodd" d="M23.2299 37.4944C30.82 36.548 36.6933 30.0733 36.6933 22.2268C36.6933 14.3803 30.82 7.9056 23.2299 6.95915C23.86 6.88059 24.5018 6.84012 25.1532 6.84012C33.651 6.84012 40.5399 13.729 40.5399 22.2268C40.5399 30.7246 33.651 37.6134 25.1532 37.6134C24.5018 37.6134 23.86 37.573 23.2299 37.4944Z" fill="#07131A"/>
<path d="M23.2299 37.4944L23.1526 36.8742L23.1526 38.1146L23.2299 37.4944ZM23.2299 6.95915L23.1526 6.33896V7.57935L23.2299 6.95915ZM36.0683 22.2268C36.0683 29.7541 30.4337 35.9663 23.1526 36.8742L23.3072 38.1146C31.2063 37.1296 37.3183 30.3925 37.3183 22.2268H36.0683ZM23.1526 7.57935C30.4337 8.48727 36.0683 14.6995 36.0683 22.2268H37.3183C37.3183 14.0611 31.2063 7.32393 23.3072 6.33896L23.1526 7.57935ZM23.3072 7.57935C23.9117 7.50398 24.5278 7.46512 25.1532 7.46512V6.21512C24.4759 6.21512 23.8082 6.2572 23.1526 6.33896L23.3072 7.57935ZM25.1532 7.46512C33.3058 7.46512 39.9149 14.0741 39.9149 22.2268H41.1649C41.1649 13.3838 33.9962 6.21512 25.1532 6.21512V7.46512ZM39.9149 22.2268C39.9149 30.3794 33.3058 36.9884 25.1532 36.9884V38.2384C33.9962 38.2384 41.1649 31.0698 41.1649 22.2268H39.9149ZM25.1532 36.9884C24.5278 36.9884 23.9117 36.9496 23.3072 36.8742L23.1526 38.1146C23.8082 38.1964 24.4759 38.2384 25.1532 38.2384V36.9884Z" fill="black"/>
<circle cx="21.3066" cy="22.2267" r="15.3867" fill="white" stroke="black" stroke-width="1.25"/>
<path fill-rule="evenodd" clip-rule="evenodd" d="M32.2891 23.7333C31.6211 28.6495 27.7295 32.5411 22.8133 33.2089V32.0593C27.1002 31.4082 30.4882 28.0202 31.1395 23.7333H32.2891ZM32.3643 21.4578C32.0035 16.1977 27.9726 11.9464 22.8133 11.2456V12.3952C27.343 13.0831 30.8691 16.8267 31.2234 21.4578H32.3643ZM11.3914 21.4578C11.7648 16.5787 15.6587 12.6847 20.5377 12.3112V11.1704C15.03 11.5483 10.6283 15.95 10.2506 21.4578H11.3914ZM11.4754 23.7333H10.3258C11.0267 28.8925 15.2779 32.9232 20.5377 33.284V32.1432C15.9069 31.7887 12.1635 28.2628 11.4754 23.7333Z" fill="black"/>
<path d="M22.8133 33.2089H22.1883V33.9245L22.8974 33.8282L22.8133 33.2089ZM32.2891 23.7333L32.9084 23.8175L33.0047 23.1083H32.2891V23.7333ZM22.8133 32.0593L22.7194 31.4414L22.1883 31.5221V32.0593H22.8133ZM31.1395 23.7333V23.1083H30.6022L30.5216 23.6394L31.1395 23.7333ZM32.3643 21.4578V22.0828H33.0336L32.9878 21.415L32.3643 21.4578ZM22.8133 11.2456L22.8974 10.6262L22.1883 10.5299V11.2456H22.8133ZM22.8133 12.3952H22.1883V12.9324L22.7194 13.0131L22.8133 12.3952ZM31.2234 21.4578L30.6003 21.5054L30.6444 22.0828H31.2234V21.4578ZM20.5377 12.3112L20.5854 12.9344L21.1627 12.8902V12.3112H20.5377ZM11.3914 21.4578V22.0828H11.9704L12.0146 21.5054L11.3914 21.4578ZM20.5377 11.1704H21.1627V10.5011L20.4949 10.5469L20.5377 11.1704ZM10.2506 21.4578L9.6271 21.415L9.5813 22.0828H10.2506V21.4578ZM11.4754 23.7333L12.0933 23.6394L12.0126 23.1083H11.4754V23.7333ZM10.3258 23.7333V23.1083H9.61015L9.7065 23.8175L10.3258 23.7333ZM20.5377 33.284L20.4949 33.9076L21.1627 33.9534V33.284H20.5377ZM20.5377 32.1432H21.1627V31.5642L20.5854 31.52L20.5377 32.1432ZM22.8974 33.8282C28.0921 33.1226 32.2026 29.0121 32.9084 23.8175L31.6698 23.6492C31.0397 28.287 27.367 31.9596 22.7291 32.5896L22.8974 33.8282ZM22.1883 32.0593V33.2089H23.4383V32.0593H22.1883ZM30.5216 23.6394C29.9114 27.6558 26.7358 30.8314 22.7194 31.4414L22.9071 32.6772C27.4647 31.985 31.0651 28.3847 31.7574 23.8272L30.5216 23.6394ZM32.2891 23.1083H31.1395V24.3583H32.2891V23.1083ZM32.9878 21.415C32.6067 15.8572 28.3486 11.3667 22.8974 10.6262L22.7291 11.8649C27.5967 12.5261 31.4004 16.5382 31.7407 21.5005L32.9878 21.415ZM22.1883 11.2456V12.3952H23.4383V11.2456H22.1883ZM22.7194 13.0131C26.9636 13.6577 30.2683 17.1667 30.6003 21.5054L31.8466 21.4101C31.4699 16.4868 27.7224 12.5086 22.9071 11.7772L22.7194 13.0131ZM31.2234 22.0828H32.3643V20.8328H31.2234V22.0828ZM20.49 11.6881C15.3034 12.0851 11.1651 16.2235 10.7683 21.4101L12.0146 21.5054C12.3644 16.9339 16.0139 13.2843 20.5854 12.9344L20.49 11.6881ZM19.9127 11.1704V12.3112H21.1627V11.1704H19.9127ZM10.8742 21.5005C11.2305 16.3042 15.3842 12.1504 20.5805 11.794L20.4949 10.5469C14.6758 10.9461 10.0262 15.5958 9.6271 21.415L10.8742 21.5005ZM10.2506 22.0828H11.3914V20.8328H10.2506V22.0828ZM11.4754 23.1083H10.3258V24.3583H11.4754V23.1083ZM20.5805 32.6605C15.6184 32.3201 11.6064 28.5165 10.9451 23.6492L9.7065 23.8175C10.4471 29.2684 14.9373 33.5263 20.4949 33.9076L20.5805 32.6605ZM19.9127 32.1432V33.284H21.1627V32.1432H19.9127ZM10.8575 23.8272C11.589 28.6422 15.5669 32.3895 20.49 32.7664L20.5854 31.52C16.2469 31.1879 12.738 27.8834 12.0933 23.6394L10.8575 23.8272Z" fill="black"/>
<path fill-rule="evenodd" clip-rule="evenodd" d="M47.2 53.3214C55.6188 52.2716 62.1333 45.09 62.1333 36.3868C62.1333 27.6836 55.6188 20.502 47.2 19.4522C47.8989 19.3651 48.6109 19.3202 49.3333 19.3202C58.759 19.3202 66.4 26.9612 66.4 36.3868C66.4 45.8125 58.759 53.4535 49.3333 53.4535C48.6109 53.4535 47.8989 53.4086 47.2 53.3214Z" fill="#07131A"/>
<path d="M47.2 53.3214L47.1227 52.7012L47.1227 53.9416L47.2 53.3214ZM47.2 19.4522L47.1227 18.832L47.1227 20.0724L47.2 19.4522ZM61.5083 36.3868C61.5083 44.7708 55.2325 51.69 47.1227 52.7012L47.2773 53.9416C56.0051 52.8533 62.7583 45.4092 62.7583 36.3868H61.5083ZM47.1227 20.0724C55.2325 21.0837 61.5083 28.0028 61.5083 36.3868H62.7583C62.7583 27.3645 56.0051 19.9203 47.2773 18.832L47.1227 20.0724ZM47.2773 20.0724C47.9506 19.9884 48.6368 19.9452 49.3333 19.9452V18.6952C48.5849 18.6952 47.8471 18.7417 47.1227 18.832L47.2773 20.0724ZM49.3333 19.9452C58.4138 19.9452 65.775 27.3063 65.775 36.3868H67.025C67.025 26.616 59.1042 18.6952 49.3333 18.6952V19.9452ZM65.775 36.3868C65.775 45.4673 58.4138 52.8285 49.3333 52.8285V54.0785C59.1042 54.0785 67.025 46.1577 67.025 36.3868H65.775ZM49.3333 52.8285C48.6368 52.8285 47.9506 52.7852 47.2773 52.7012L47.1227 53.9416C47.8471 54.032 48.5849 54.0785 49.3333 54.0785V52.8285Z" fill="black"/>
<circle cx="45.0666" cy="36.387" r="17.0667" fill="white" stroke="black" stroke-width="1.25"/>
<path fill-rule="evenodd" clip-rule="evenodd" d="M57.2164 37.8092C56.5658 43.4277 52.1078 47.8858 46.4893 48.5364V47.3901C51.4787 46.7516 55.4316 42.7986 56.0701 37.8092H57.2164ZM57.2688 35.5336C56.8633 29.6496 52.296 24.9102 46.4893 24.2378V25.3841C51.6667 26.0467 55.7282 30.2784 56.128 35.5336H57.2688ZM34.0061 35.5336C34.4205 30.0874 38.7675 25.7404 44.2137 25.3261V24.1853C38.1388 24.604 33.284 29.4587 32.8653 35.5336H34.0061ZM32.9177 37.8092C33.5901 43.6161 38.3295 48.1834 44.2137 48.5889V47.4481C38.9584 47.0483 34.7265 42.9868 34.064 37.8092H32.9177Z" fill="black"/>
<path d="M46.4893 48.5364H45.8643V49.238L46.5612 49.1573L46.4893 48.5364ZM57.2164 37.8092L57.8372 37.8811L57.9179 37.1842H57.2164V37.8092ZM46.4893 47.3901L46.4099 46.7702L45.8643 46.84V47.3901H46.4893ZM56.0701 37.8092V37.1842H55.52L55.4501 37.7298L56.0701 37.8092ZM57.2688 35.5336V36.1586H57.9384L57.8924 35.4906L57.2688 35.5336ZM46.4893 24.2378L46.5612 23.617L45.8643 23.5363V24.2378H46.4893ZM46.4893 25.3841H45.8643V25.9342L46.4099 26.0041L46.4893 25.3841ZM56.128 35.5336L55.5048 35.581L55.5488 36.1586H56.128V35.5336ZM44.2137 25.3261L44.2611 25.9493L44.8387 25.9054V25.3261H44.2137ZM34.0061 35.5336V36.1586H34.5853L34.6293 35.581L34.0061 35.5336ZM44.2137 24.1853H44.8387V23.5158L44.1708 23.5618L44.2137 24.1853ZM32.8653 35.5336L32.2417 35.4906L32.1957 36.1586H32.8653V35.5336ZM44.2137 48.5889L44.1708 49.2125L44.8387 49.2585V48.5889H44.2137ZM32.9177 37.8092V37.1842H32.2162L32.2969 37.881L32.9177 37.8092ZM44.2137 47.4481H44.8387V46.8689L44.2611 46.8249L44.2137 47.4481ZM34.064 37.8092L34.684 37.7298L34.6141 37.1842H34.064V37.8092ZM46.5612 49.1573C52.4679 48.4733 57.1533 43.7878 57.8372 37.8811L56.5955 37.7373C55.9784 43.0676 51.7477 47.2983 46.4174 47.9156L46.5612 49.1573ZM45.8643 47.3901V48.5364H47.1143V47.3901H45.8643ZM55.4501 37.7298C54.8478 42.437 51.1171 46.1678 46.4099 46.7702L46.5686 48.0101C51.8403 47.3354 56.0155 43.1602 56.69 37.8885L55.4501 37.7298ZM57.2164 37.1842H56.0701V38.4342H57.2164V37.1842ZM57.8924 35.4906C57.466 29.3048 52.6656 24.3239 46.5612 23.617L46.4174 24.8587C51.9265 25.4966 56.2605 29.9943 56.6453 35.5766L57.8924 35.4906ZM45.8643 24.2378V25.3841H47.1143V24.2378H45.8643ZM46.4099 26.0041C51.2948 26.6292 55.1276 30.6231 55.5048 35.581L56.7512 35.4862C56.3288 29.9338 52.0387 25.4642 46.5686 24.7642L46.4099 26.0041ZM56.128 36.1586H57.2688V34.9086H56.128V36.1586ZM44.1663 24.7029C38.4123 25.1406 33.8207 29.7322 33.3829 35.4862L34.6293 35.581C35.0202 30.4426 39.1227 26.3402 44.2611 25.9493L44.1663 24.7029ZM43.5887 24.1853V25.3261H44.8387V24.1853H43.5887ZM33.4888 35.5766C33.8861 29.813 38.4931 25.206 44.2567 24.8088L44.1708 23.5618C37.7845 24.0019 32.6819 29.1044 32.2417 35.4906L33.4888 35.5766ZM32.8653 36.1586H34.0061V34.9086H32.8653V36.1586ZM44.2567 47.9654C38.6742 47.5807 34.1765 43.2465 33.5386 37.7373L32.2969 37.881C33.0037 43.9856 37.9848 48.7861 44.1708 49.2125L44.2567 47.9654ZM43.5887 47.4481V48.5889H44.8387V47.4481H43.5887ZM33.4441 37.8885C34.144 43.3588 38.6137 47.6489 44.1663 48.0713L44.2611 46.8249C39.303 46.4478 35.309 42.6148 34.684 37.7298L33.4441 37.8885ZM34.064 37.1842H32.9177V38.4342H34.064V37.1842Z" fill="black"/>
<path d="M83.6799 44.7602C61.1199 47.6402 23.6799 50.7602 0.639954 41.1602L0.639954 75.9601L0.639954 84.6001L0.639954 96.6001L0.639954 113.16C9.27995 121.8 64.4799 123.24 83.6799 111.96V91.8001C80.0903 92.8146 72.1315 94.4076 68.3569 92.8814C68.185 92.8119 68.0799 92.6419 68.0799 92.4564V73.8418C68.0799 73.561 68.3188 73.3404 68.5993 73.3549C73.2479 73.5947 80.5203 72.1708 83.6799 71.4001V65.1601V44.7602Z" fill="white"/>
<path fill-rule="evenodd" clip-rule="evenodd" d="M83.6799 71.4001C80.5203 72.1708 73.2479 73.5947 68.5993 73.3549C68.3188 73.3404 68.0799 73.561 68.0799 73.8418V92.4564C68.0799 92.6419 68.185 92.8119 68.3569 92.8814C72.1315 94.4076 80.0903 92.8146 83.6799 91.8001C86.0799 91.1219 90.1599 88.966 90.1599 87.0001V67.5601C87.9999 69.9601 86.3199 70.7562 83.6799 71.4001ZM78.3999 82.9201C78.3999 81.7201 77.9199 79.0801 74.7999 79.0801C71.6799 79.0801 71.4399 81.7201 71.4399 82.9201C71.4399 84.1201 71.9199 87.0001 75.0399 87.0001C78.1599 87.0001 78.3999 84.1201 78.3999 82.9201Z" fill="white"/>
<path d="M74.7999 79.0801C77.9199 79.0801 78.3999 81.7201 78.3999 82.9201C78.3999 84.1201 78.1599 87.0001 75.0399 87.0001C71.9199 87.0001 71.4399 84.1201 71.4399 82.9201C71.4399 81.7201 71.6799 79.0801 74.7999 79.0801Z" fill="white"/>
<path d="M83.6799 71.4001C86.3199 70.7562 87.9999 69.9601 90.1599 67.5601C89.3599 67.0001 87.0399 65.1601 83.6799 65.1601V71.4001Z" fill="#07131A"/>
<path d="M83.6799 44.7602C61.1199 47.6402 23.6799 50.7602 0.639954 41.1602M83.6799 44.7602C83.6799 50.4149 83.6799 56.9216 83.6799 65.1601M83.6799 44.7602V65.1601M0.639954 41.1602C0.639954 45.8928 0.639954 60.3929 0.639954 75.9601M0.639954 41.1602L0.639954 75.9601M0.639954 113.16C9.27995 121.8 64.4799 123.24 83.6799 111.96M0.639954 113.16C0.639954 108.572 0.639954 102.835 0.639954 96.6001M0.639954 113.16L0.639954 96.6001M83.6799 111.96C83.6799 108.089 83.6799 100.616 83.6799 91.8001M83.6799 111.96V91.8001M0.639954 84.6001H27.7599M0.639954 84.6001C0.639954 81.7201 0.639954 78.8221 0.639954 75.9601M0.639954 84.6001C0.639954 88.6879 0.639954 92.7394 0.639954 96.6001M0.639954 84.6001L0.639954 75.9601M0.639954 84.6001L0.639954 96.6001M0.639954 75.9601H14.1211C14.2484 75.9601 14.3705 75.9096 14.4605 75.8196L22.9599 67.3201M0.639954 96.6001H14.1211C14.2484 96.6001 14.3705 96.6507 14.4605 96.7407L22.9599 105.24M83.6799 71.4001C80.5203 72.1708 73.2479 73.5947 68.5993 73.3549C68.3188 73.3404 68.0799 73.561 68.0799 73.8418V92.4564C68.0799 92.6419 68.185 92.8119 68.3569 92.8814C72.1315 94.4076 80.0903 92.8146 83.6799 91.8001M83.6799 71.4001C86.3199 70.7562 87.9999 69.9601 90.1599 67.5601M83.6799 71.4001C83.6799 69.7068 83.6799 66.8227 83.6799 65.1601M83.6799 71.4001V65.1601M83.6799 91.8001C86.0799 91.1219 90.1599 88.966 90.1599 87.0001M90.1599 67.5601C90.1599 70.3967 90.1599 84.2562 90.1599 87.0001M90.1599 67.5601C89.3599 67.0001 87.0399 65.1601 83.6799 65.1601M90.1599 67.5601V87.0001M74.7999 79.0801C77.9199 79.0801 78.3999 81.7201 78.3999 82.9201C78.3999 84.1201 78.1599 87.0001 75.0399 87.0001C71.9199 87.0001 71.4399 84.1201 71.4399 82.9201C71.4399 81.7201 71.6799 79.0801 74.7999 79.0801Z" stroke="black" stroke-width="1.25" stroke-linejoin="round"/>
<circle cx="26.3199" cy="63.7202" r="5.04" stroke="black" stroke-width="1.25"/>
<circle cx="26.3199" cy="108.84" r="5.04" stroke="black" stroke-width="1.25"/>
<circle cx="33.0399" cy="84.84" r="5.04" stroke="black" stroke-width="1.25"/>
<path fill-rule="evenodd" clip-rule="evenodd" d="M97.0182 120.265L97.0104 120.241C97.0132 120.249 97.0158 120.257 97.0182 120.265Z" fill="white"/>
<path d="M117.347 120.814C117.15 119.699 115.535 117.034 113.015 114.514C110.496 111.994 107.11 110.446 105.732 109.987C104.355 112.152 102.583 117.231 106.52 120.222C111.44 123.961 109.866 128.687 107.584 131.219C104.723 136.036 93.0919 147.681 87.419 153.102C82.8915 157.63 77.3799 156.055 74.0335 152.708C70.6872 149.362 71.0809 144.638 75.0178 140.701L95.0959 120.623C95.2475 120.471 95.656 120.156 96.2673 119.875C96.5684 119.737 96.9056 119.929 97.0104 120.241C96.1166 117.377 96.1436 113.775 96.2847 111.169C94.9724 111.431 93.1344 111.562 90.7723 113.924L65.5762 139.12C62.033 142.663 61.0488 151.127 68.5286 159.001C76.0084 166.874 85.8512 165.3 88.8039 162.347L114 137.151C114.984 136.167 117.281 132.691 117.741 129.475C118.003 127.638 117.978 123.964 117.347 120.814Z" fill="white"/>
<path d="M126.204 87.5463C130.731 83.0189 136.243 84.5936 139.589 87.94C142.936 91.2863 142.542 96.0106 138.605 99.9475L118.527 120.026C118.33 120.222 118.292 120.499 117.347 120.814C117.978 123.964 118.003 127.638 117.741 129.475C119.119 129.278 122.267 128.884 124.826 126.325C127.189 123.963 136.047 115.892 144.905 106.247C153.763 96.6014 151.597 86.9557 146.085 81.4441C140.574 75.9325 130.142 72.9808 120.89 82.2318C119.315 83.8064 105.929 97.192 99.4335 103.688C98.8901 104.352 96.4463 108.181 96.2847 111.169C96.1436 113.775 96.1166 117.377 97.0104 120.241C97.0132 120.249 97.0158 120.257 97.0182 120.265C97.4124 121.621 98.4732 124 100.608 126.134C102.814 128.341 105.684 129.802 107.289 130.44C107.603 130.565 107.757 130.927 107.584 131.219C109.866 128.687 111.44 123.961 106.52 120.222C102.583 117.231 104.355 112.152 105.732 109.987C107.937 105.577 120.299 93.1892 126.204 87.5463Z" fill="white"/>
<path d="M138.605 99.9475C142.542 96.0106 142.936 91.2863 139.589 87.94C136.243 84.5936 130.731 83.0189 126.204 87.5463C120.299 93.1892 107.937 105.577 105.732 109.987M138.605 99.9475C135.456 103.097 123.907 114.645 118.527 120.026M138.605 99.9475L118.527 120.026M118.527 120.026C118.33 120.222 118.292 120.499 117.347 120.814M117.347 120.814C117.15 119.699 115.535 117.034 113.015 114.514C110.496 111.994 107.11 110.446 105.732 109.987M117.347 120.814C117.978 123.964 118.003 127.638 117.741 129.475M105.732 109.987C104.355 112.152 102.583 117.231 106.52 120.222C111.44 123.961 109.866 128.687 107.584 131.219M117.741 129.475C119.119 129.278 122.267 128.884 124.826 126.325C127.189 123.963 136.047 115.892 144.905 106.247C153.763 96.6014 151.597 86.9557 146.085 81.4441C140.574 75.9325 130.142 72.9808 120.89 82.2318C119.315 83.8064 105.929 97.192 99.4335 103.688C98.8901 104.352 96.4463 108.181 96.2847 111.169M117.741 129.475C117.281 132.691 114.984 136.167 114 137.151M114 137.151C106.585 144.566 91.166 159.985 88.8039 162.347M114 137.151L88.8039 162.347M88.8039 162.347C85.8512 165.3 76.0084 166.874 68.5286 159.001C61.0488 151.127 62.033 142.663 65.5762 139.12M65.5762 139.12C69.1194 135.577 87.8196 116.876 90.7723 113.924M65.5762 139.12L90.7723 113.924M90.7723 113.924C93.1344 111.562 94.9724 111.431 96.2847 111.169M96.2847 111.169C96.1436 113.775 96.1166 117.377 97.0104 120.241M97.0182 120.265C97.4124 121.621 98.4732 124 100.608 126.134C102.814 128.341 105.684 129.802 107.289 130.44C107.603 130.565 107.757 130.927 107.584 131.219M97.0182 120.265L97.0104 120.241M97.0182 120.265C97.0158 120.257 97.0132 120.249 97.0104 120.241M107.584 131.219C104.723 136.036 93.0919 147.681 87.419 153.102C82.8915 157.63 77.3799 156.055 74.0335 152.708C70.6872 149.362 71.0809 144.638 75.0178 140.701L95.0959 120.623C95.2475 120.471 95.656 120.156 96.2673 119.875C96.5684 119.737 96.9056 119.929 97.0104 120.241" stroke="black" stroke-width="1.25" stroke-linecap="round"/>
</svg>
